<svg height="64" width="64"
    xmlns="http://www.w3.org/2000/svg">
    <path d="M15.609.763H6.336a3.856 3.856 0 00-3.851 3.851v9.273a3.856 3.856 0 003.851 3.851h9.273a3.856 3.856 0 003.851-3.851V4.613a3.856 3.856 0 00-3.851-3.85zm.85 13.124a.852.852 0 01-.851.851H6.336a.852.852 0 01-.851-.851V4.613c0-.469.381-.851.851-.851h9.273c.469 0 .851.381.851.851v9.274zM36.636.763h-9.272a3.856 3.856 0 00-3.851 3.851v9.273a3.856 3.856 0 003.851 3.852h9.272a3.856 3.856 0 003.851-3.852V4.613a3.856 3.856 0 00-3.851-3.85zm.85 13.124c0 .47-.382.852-.851.852h-9.272a.852.852 0 01-.851-.852V4.613c0-.469.381-.851.851-.851h9.272c.469 0 .851.381.851.851v9.274zM57.664.763h-9.273a3.856 3.856 0 00-3.851 3.851v9.273a3.856 3.856 0 003.851 3.852h9.273a3.856 3.856 0 003.851-3.852V4.613a3.855 3.855 0 00-3.851-3.85zm.851 13.124c0 .47-.382.852-.851.852h-9.273a.852.852 0 01-.851-.852V4.613c0-.469.382-.851.851-.851h9.273c.469 0 .851.381.851.851v9.274zM15.609 23.513H6.336a3.856 3.856 0 00-3.851 3.851v9.272a3.856 3.856 0 003.851 3.852h9.273a3.856 3.856 0 003.851-3.852v-9.272a3.856 3.856 0 00-3.851-3.851zm.85 13.123c0 .47-.381.852-.851.852H6.336a.852.852 0 01-.851-.852v-9.272c0-.469.381-.851.851-.851h9.273c.469 0 .851.381.851.851v9.272zM36.636 23.513h-9.273a3.855 3.855 0 00-3.85 3.851v9.272a3.855 3.855 0 003.85 3.852h9.273a3.856 3.856 0 003.851-3.852v-9.272a3.856 3.856 0 00-3.851-3.851zm.85 13.123c0 .47-.382.852-.851.852h-9.273a.852.852 0 01-.85-.852v-9.272c0-.469.381-.851.85-.851h9.273c.469 0 .851.381.851.851v9.272zM57.664 23.513h-9.273a3.856 3.856 0 00-3.851 3.851v9.272a3.856 3.856 0 003.851 3.852h9.273a3.856 3.856 0 003.851-3.852v-9.272a3.855 3.855 0 00-3.851-3.851zm.851 13.123c0 .47-.382.852-.851.852h-9.273a.852.852 0 01-.851-.852v-9.272c0-.469.382-.851.851-.851h9.273c.469 0 .851.381.851.851v9.272zM15.609 46.263H6.336a3.856 3.856 0 00-3.851 3.851v9.272a3.856 3.856 0 003.851 3.852h9.273a3.856 3.856 0 003.851-3.852v-9.272a3.856 3.856 0 00-3.851-3.851zm.85 13.123c0 .47-.381.852-.851.852H6.336a.852.852 0 01-.851-.852v-9.272c0-.469.381-.851.851-.851h9.273c.469 0 .851.382.851.851v9.272zM36.636 46.263h-9.273a3.855 3.855 0 00-3.85 3.851v9.272a3.855 3.855 0 003.85 3.852h9.273a3.856 3.856 0 003.851-3.852v-9.272a3.856 3.856 0 00-3.851-3.851zm.85 13.123c0 .47-.382.852-.851.852h-9.273a.852.852 0 01-.85-.852v-9.272c0-.469.381-.851.85-.851h9.273c.469 0 .851.382.851.851v9.272zM57.664 46.263h-9.273a3.856 3.856 0 00-3.851 3.851v9.272a3.856 3.856 0 003.851 3.852h9.273a3.856 3.856 0 003.851-3.852v-9.272a3.855 3.855 0 00-3.851-3.851zm.851 13.123c0 .47-.382.852-.851.852h-9.273a.852.852 0 01-.851-.852v-9.272c0-.469.382-.851.851-.851h9.273c.469 0 .851.382.851.851v9.272z"/>
</svg>