<?xml version="1.0" encoding="iso-8859-1"?>
<!-- Generator: Adobe Illustrator 16.0.0, SVG Export Plug-In . SVG Version: 6.00 Build 0)  -->
<!DOCTYPE svg PUBLIC "-//W3C//DTD SVG 1.1//EN" "http://www.w3.org/Graphics/SVG/1.1/DTD/svg11.dtd">
<svg version="1.1" id="Capa_1" xmlns="http://www.w3.org/2000/svg" xmlns:xlink="http://www.w3.org/1999/xlink" x="0px" y="0px"
	viewBox="0 0 254.782 254.782" style="enable-background:new 0 0 254.782 254.782;"
	 xml:space="preserve">
<g>
	<path d="M23.384,30.344c-33.205,22.27-28.035,55.087-3.307,80.888c5.724,5.974,12.032,10.995,18.701,15.515
		c11.129,7.547,31.201,17.451,43.912,23.635c2.168,1.05,4.328,2.132,6.441,3.249c12.498,6.604,12.32,5.744,11.191-8.347
		c-2.672-33.196,36.268-59.115,37.318-74.839c-0.047-14.875-2.589-26.581-7.045-35.688C112.593-2.032,63.408,3.499,23.384,30.344z"
		/>
	<path d="M151.204,100.091c39.886-14.885,114.67,36.044,102.191,81.215c-6.757,24.447-29.922,37.67-51.754,46.772
		c-13.549,5.648-33.401,8.855-49.907,15.039c-13.232,4.962-12.141,4.835-9.474-9.045c4.924-25.621-20.313-49.506-23.098-77.659
		c-1.279-12.903,1.737-26.252,8.585-37.016C133.2,110.81,141.104,103.859,151.204,100.091z"/>
</g>
<g>
</g>
<g>
</g>
<g>
</g>
<g>
</g>
<g>
</g>
<g>
</g>
<g>
</g>
<g>
</g>
<g>
</g>
<g>
</g>
<g>
</g>
<g>
</g>
<g>
</g>
<g>
</g>
<g>
</g>
</svg>
