<svg
    xmlns="http://www.w3.org/2000/svg" viewBox="0 0 68 85">
    <path d="M54 17h12a2 2 0 012 2v12a2 2 0 01-2 2H54a2 2 0 01-2-2V19a2 2 0 012-2zm-35-1h12a2 2 0 012 2v12a2 2 0 01-2 2H19a2 2 0 01-2-2V18a2 2 0 012-2zM2 0h12a2 2 0 012 2v12a2 2 0 01-2 2H2a2 2 0 01-2-2V2a2 2 0 012-2zm35 0h12a2 2 0 012 2v12a2 2 0 01-2 2H37a2 2 0 01-2-2V2a2 2 0 012-2zm17 52h12a2 2 0 012 2v12a2 2 0 01-2 2H54a2 2 0 01-2-2V54a2 2 0 012-2zm-35 0h12a2 2 0 012 2v12a2 2 0 01-2 2H19a2 2 0 01-2-2V54a2 2 0 012-2zM2 35h12a2 2 0 012 2v12a2 2 0 01-2 2H2a2 2 0 01-2-2V37a2 2 0 012-2zm35 0h12a2 2 0 012 2v12a2 2 0 01-2 2H37a2 2 0 01-2-2V37a2 2 0 012-2z"/>
</svg>